<?xml version="1.0" encoding="iso-8859-1"?>
<!-- Uploaded to: SVG Repo, www.svgrepo.com, Generator: SVG Repo Mixer Tools -->
<svg version="1.1" id="Layer_1" xmlns="http://www.w3.org/2000/svg" xmlns:xlink="http://www.w3.org/1999/xlink" 
	 viewBox="0 0 512 512" xml:space="preserve">
<g>
	<path style="fill:#CCCCCC;" d="M415.135,153.281h-36.191c-4.409,0-7.983,3.574-7.983,7.983v342.753
		c0,4.409,3.574,7.983,7.983,7.983h36.191c4.409,0,7.983-3.574,7.983-7.983V161.264
		C423.118,156.855,419.544,153.281,415.135,153.281z"/>
	<path style="fill:#CCCCCC;" d="M133.056,153.281H96.865c-4.409,0-7.983,3.574-7.983,7.983v342.753c0,4.409,3.574,7.983,7.983,7.983
		h36.191c4.409,0,7.983-3.574,7.983-7.983V161.264C141.04,156.855,137.465,153.281,133.056,153.281z"/>
</g>
<g>
	<path style="fill:#B2B2B2;" d="M423.118,161.264c0-4.409-3.574-7.983-7.983-7.983h-36.191c-4.409,0-7.983,3.574-7.983,7.983
		v118.864h52.158V161.264z"/>
	<rect x="370.961" y="329.798" style="fill:#B2B2B2;" width="52.158" height="109.287"/>
	<path style="fill:#B2B2B2;" d="M141.04,161.264c0-4.409-3.574-7.983-7.983-7.983H96.865c-4.409,0-7.983,3.574-7.983,7.983v118.864
		h52.158V161.264z"/>
	<rect x="88.882" y="329.798" style="fill:#B2B2B2;" width="52.158" height="109.287"/>
</g>
<path style="fill:#EB6836;" d="M399.168,68.125h-6.387c-22.011,0-39.917,17.906-39.917,39.917v53.222
	c0,4.409,3.574,7.983,7.983,7.983h70.254c4.409,0,7.983-3.574,7.983-7.983v-53.222C439.085,86.031,421.179,68.125,399.168,68.125z"
	/>
<path style="fill:#C74B38;" d="M369.896,161.264v-53.222c0-20.205,15.093-36.94,34.595-39.552c-1.743-0.233-3.517-0.365-5.322-0.365
	h-6.387c-22.011,0-39.917,17.906-39.917,39.917v53.222c0,4.409,3.574,7.983,7.983,7.983h17.031
	C373.47,169.247,369.896,165.673,369.896,161.264z"/>
<g>
	<path style="fill:#F7D04A;" d="M397.039,45.771c-4.409,0-7.983-3.574-7.983-7.983V7.983c0-4.409,3.574-7.983,7.983-7.983
		c4.409,0,7.983,3.574,7.983,7.983v29.805C405.023,42.197,401.448,45.771,397.039,45.771z"/>
	<path style="fill:#F7D04A;" d="M440.695,63.854c-2.043,0-4.086-0.779-5.645-2.339c-3.118-3.118-3.118-8.173,0-11.29l21.075-21.075
		c3.118-3.118,8.173-3.118,11.29,0c3.118,3.118,3.118,8.173,0,11.29l-21.075,21.075C444.781,63.074,442.738,63.854,440.695,63.854z"
		/>
	<path style="fill:#F7D04A;" d="M488.582,107.509h-29.805c-4.409,0-7.983-3.574-7.983-7.983c0-4.409,3.574-7.983,7.983-7.983h29.805
		c4.409,0,7.983,3.574,7.983,7.983C496.565,103.935,492.991,107.509,488.582,107.509z"/>
	<path style="fill:#F7D04A;" d="M335.301,107.509h-29.805c-4.409,0-7.983-3.574-7.983-7.983c0-4.409,3.574-7.983,7.983-7.983h29.805
		c4.409,0,7.983,3.574,7.983,7.983C343.285,103.935,339.71,107.509,335.301,107.509z"/>
	<path style="fill:#F7D04A;" d="M353.384,63.854c-2.043,0-4.086-0.779-5.645-2.339l-21.075-21.075c-3.118-3.118-3.118-8.173,0-11.29
		c3.118-3.118,8.173-3.118,11.29,0l21.075,21.075c3.118,3.118,3.118,8.173,0,11.29C357.471,63.074,355.427,63.854,353.384,63.854z"
		/>
</g>
<path style="fill:#EB6836;" d="M119.218,68.125h-6.387c-22.011,0-39.917,17.906-39.917,39.917v53.222
	c0,4.409,3.574,7.983,7.983,7.983h70.254c4.409,0,7.983-3.574,7.983-7.983v-53.222C159.135,86.031,141.229,68.125,119.218,68.125z"
	/>
<path style="fill:#C74B38;" d="M89.946,161.264v-53.222c0-20.205,15.093-36.94,34.595-39.552c-1.743-0.233-3.517-0.365-5.322-0.365
	h-6.387c-22.011,0-39.917,17.906-39.917,39.917v53.222c0,4.409,3.574,7.983,7.983,7.983h17.031
	C93.52,169.247,89.946,165.673,89.946,161.264z"/>
<g>
	<path style="fill:#F7D04A;" d="M114.961,45.771c-4.409,0-7.983-3.574-7.983-7.983V7.983c0-4.409,3.574-7.983,7.983-7.983
		c4.409,0,7.983,3.574,7.983,7.983v29.805C122.944,42.197,119.369,45.771,114.961,45.771z"/>
	<path style="fill:#F7D04A;" d="M71.305,63.854c-2.043,0-4.086-0.779-5.645-2.339L44.586,40.441c-3.118-3.118-3.118-8.173,0-11.29
		c3.118-3.118,8.173-3.118,11.29,0L76.95,50.226C81.868,55.143,78.287,63.854,71.305,63.854z"/>
	<path style="fill:#F7D04A;" d="M53.222,107.509H23.418c-4.409,0-7.983-3.574-7.983-7.983c0-4.409,3.574-7.983,7.983-7.983h29.805
		c4.409,0,7.983,3.574,7.983,7.983C61.206,103.935,57.631,107.509,53.222,107.509z"/>
	<path style="fill:#F7D04A;" d="M206.503,107.509h-29.805c-4.409,0-7.983-3.574-7.983-7.983c0-4.409,3.574-7.983,7.983-7.983h29.805
		c4.409,0,7.983,3.574,7.983,7.983C214.486,103.935,210.912,107.509,206.503,107.509z"/>
	<path style="fill:#F7D04A;" d="M158.616,63.854c-6.981,0-10.564-8.71-5.645-13.628l21.075-21.075c3.118-3.118,8.173-3.118,11.29,0
		c3.118,3.118,3.118,8.173,0,11.29L164.26,61.516C162.702,63.074,160.659,63.854,158.616,63.854z"/>
</g>
<g>
	<polygon style="fill:#666666;" points="248.017,153.281 234.711,157.006 136.782,254.936 136.249,265.048 224.599,265.048 
		243.227,259.193 341.156,161.264 336.366,153.281 	"/>
	<path style="fill:#666666;" d="M87.817,153.281l-12.241,5.322L4.79,229.389l-3.726,10.644v17.031c0,4.409,3.574,7.983,7.983,7.983
		h56.416l11.709-1.597l97.929-97.929l2.129-12.241H87.817z"/>
	<polygon style="fill:#666666;" points="408.216,153.281 396.507,157.538 299.11,254.936 296.449,265.048 383.202,265.048 
		396.507,259.193 494.437,161.264 494.969,153.281 	"/>
</g>
<g>
	<path style="fill:#F7D04A;" d="M9.048,153.281c-4.409,0-7.983,3.574-7.983,7.983v78.769l86.753-86.753H9.048z"/>
	<polygon style="fill:#F7D04A;" points="177.231,153.281 65.464,265.048 136.249,265.048 248.017,153.281 	"/>
	<polygon style="fill:#F7D04A;" points="336.366,153.281 224.599,265.048 296.449,265.048 408.216,153.281 	"/>
	<path style="fill:#F7D04A;" d="M502.952,153.281h-7.983L383.202,265.048h119.751c4.409,0,7.983-3.574,7.983-7.983v-95.8
		C510.936,156.855,507.361,153.281,502.952,153.281z"/>
</g>
<g>
	<polygon style="fill:#666666;" points="248.017,309.755 234.711,313.48 136.782,411.41 136.249,421.522 224.599,421.522 
		243.227,415.667 341.156,317.738 336.366,309.755 	"/>
	<path style="fill:#666666;" d="M87.817,309.755l-12.241,5.322L4.79,385.863l-3.726,10.645v17.031c0,4.409,3.574,7.983,7.983,7.983
		h56.416l11.709-1.597l97.929-97.929l2.129-12.241H87.817z"/>
	<polygon style="fill:#666666;" points="408.216,309.755 396.507,314.012 299.11,411.41 296.449,421.522 383.202,421.522 
		396.507,415.667 494.437,317.738 494.969,309.755 	"/>
</g>
<g>
	<path style="fill:#F7D04A;" d="M9.048,309.755c-4.409,0-7.983,3.574-7.983,7.983v78.769l86.753-86.753H9.048z"/>
	<polygon style="fill:#F7D04A;" points="177.231,309.755 65.464,421.522 136.249,421.522 248.017,309.755 	"/>
	<polygon style="fill:#F7D04A;" points="336.366,309.755 224.599,421.522 296.449,421.522 408.216,309.755 	"/>
	<path style="fill:#F7D04A;" d="M502.952,309.755h-7.983L383.202,421.522h119.751c4.409,0,7.983-3.574,7.983-7.983v-95.8
		C510.936,313.329,507.361,309.755,502.952,309.755z"/>
</g>
</svg>