<?xml version="1.0" encoding="iso-8859-1"?>
<!-- Uploaded to: SVG Repo, www.svgrepo.com, Generator: SVG Repo Mixer Tools -->
<svg height="800px" width="800px" version="1.1" id="Layer_1" xmlns="http://www.w3.org/2000/svg" xmlns:xlink="http://www.w3.org/1999/xlink" 
	 viewBox="0 0 512.001 512.001" xml:space="preserve">
<path style="fill:#DD852C;" d="M219.912,261.554l42.181-42.181c55.293-55.293,106.872-114.261,153.184-177.28
	c6.015-8.185,12.478-16.032,19.102-22.656c7.68-7.68,16.978-13.049,26.557-16.791c30.288-11.823,60.241,18.129,48.417,48.417
	c-3.741,9.578-9.101,18.886-16.781,26.566c-6.622,6.622-14.48,13.077-22.665,19.092c-63.019,46.312-121.987,97.891-177.28,153.184
	l-42.181,42.181"/>
<path style="fill:#C16D21;" d="M478.491,20.195c-7.467,5.863-15.339,12.649-23.022,20.331c-6.622,6.622-13.589,13.968-20.383,21.366
	c-52.373,56.96-106.633,113.254-161.928,168.549l-42.181,42.181l-11.071-11.071l42.181-42.181
	c55.295-55.295,106.874-114.255,153.185-177.275c6.019-8.191,12.485-16.037,19.107-22.66c7.682-7.682,16.969-13.055,26.557-16.796
	c15.15-5.907,30.213-1.379,40.008,8.415C498.253,8.364,490.287,10.935,478.491,20.195z"/>
<path style="fill:#247396;" d="M251.419,447.674l-16.974,16.974L47.355,277.57l16.974-16.974
	c43.373-43.374,113.695-43.374,157.069,0l30.021,30.021C294.78,333.991,294.78,404.301,251.419,447.674z"/>
<g>
	<path style="fill:#1B627A;" d="M258.4,298.289c-2.19-2.638-4.514-5.201-6.987-7.672l-30.022-30.022
		c-43.371-43.371-113.691-43.371-157.062,0l-16.971,16.971l44.681,44.681l16.971-16.971
		C149.911,264.375,214.769,262.051,258.4,298.289z"/>
	<path style="fill:#1B627A;" d="M245.651,453.442l-11.206,11.206L47.355,277.57l11.206-11.206c2.146,1.256,4.182,2.817,6.024,4.658
		l176.408,176.396C242.834,449.26,244.395,451.296,245.651,453.442z"/>
</g>
<path style="fill:#247396;" d="M188.317,504.014L7.993,323.691c-10.649-10.649-10.649-27.915,0-38.564l3.44-3.44
	c11.732-11.732,30.753-11.732,42.486,0l176.402,176.402c11.732,11.732,11.732,30.753,0,42.486l-3.44,3.44
	C216.232,514.664,198.966,514.664,188.317,504.014z"/>
<path style="fill:#1B627A;" d="M58.866,335.998l3.44-3.44c11.732-11.732,30.753-11.732,42.486,0L53.92,281.687
	c-11.732-11.732-30.753-11.732-42.486,0l-3.44,3.44c-10.649,10.649-10.649,27.915,0,38.564l50.872,50.871
	C48.216,363.914,48.216,346.647,58.866,335.998z"/>
</svg>